<svg width="1820" height="50" viewBox="0 0 1820 50" fill="none" xmlns="http://www.w3.org/2000/svg">
<path d="M1819.99 40.1034L1817.03 15.0423C1816.98 14.6389 1816.58 14.325 1816.14 14.325H1810.66V12.8007C1810.66 8.49689 1806.81 5 1802.07 5C1797.34 5 1793.49 8.49689 1793.49 12.8007V14.325H1787.86C1787.42 14.325 1787.02 14.6389 1786.97 15.0423L1784.01 40.1034C1783.96 40.3275 1784.06 40.5517 1784.21 40.731C1784.36 40.9103 1784.61 41 1784.85 41H1819.15C1819.39 41 1819.64 40.9103 1819.79 40.731C1819.94 40.5517 1820.04 40.3275 1819.99 40.1034ZM1809.77 18.8531C1810.22 18.8531 1810.56 19.1669 1810.56 19.5704C1810.56 19.9738 1810.22 20.2877 1809.77 20.2877C1809.33 20.2877 1808.98 19.9738 1808.98 19.5704C1808.98 19.1669 1809.33 18.8531 1809.77 18.8531ZM1795.26 12.8007C1795.26 9.39352 1798.32 6.61395 1802.07 6.61395C1805.82 6.61395 1808.88 9.39352 1808.88 12.8007V14.325H1795.26V12.8007ZM1794.38 18.8531C1794.82 18.8531 1795.17 19.1669 1795.17 19.5704C1795.17 19.9738 1794.82 20.2877 1794.38 20.2877C1793.93 20.2877 1793.59 19.9738 1793.59 19.5704C1793.59 19.1669 1793.93 18.8531 1794.38 18.8531ZM1785.89 39.3412L1788.65 15.8941H1793.49V17.3736C1792.5 17.6874 1791.81 18.5392 1791.81 19.5255C1791.81 20.7808 1792.94 21.812 1794.33 21.812C1795.71 21.812 1796.84 20.7808 1796.84 19.5255C1796.84 18.5392 1796.15 17.6874 1795.17 17.3736V15.8941H1808.79V17.3736C1807.8 17.6874 1807.11 18.5392 1807.11 19.5255C1807.11 20.7808 1808.24 21.812 1809.62 21.812C1811.01 21.812 1812.14 20.7808 1812.14 19.5255C1812.14 18.5392 1811.45 17.6874 1810.46 17.3736V15.8941H1815.5L1818.26 39.3412H1785.89Z" fill="#272727"/>
<path d="M1500.93 21.185C1503.09 25.43 1506.57 28.895 1510.82 31.07L1514.11 27.77C1514.52 27.365 1515.12 27.23 1515.65 27.41C1517.33 27.965 1519.14 28.265 1521 28.265C1521.83 28.265 1522.5 28.94 1522.5 29.765V35C1522.5 35.825 1521.83 36.5 1521 36.5C1506.91 36.5 1495.5 25.085 1495.5 11C1495.5 10.175 1496.17 9.5 1497 9.5H1502.25C1503.07 9.5 1503.75 10.175 1503.75 11C1503.75 12.875 1504.05 14.675 1504.6 16.355C1504.77 16.88 1504.65 17.465 1504.23 17.885L1500.93 21.185Z" fill="#272727"/>
<path d="M1537.78 29.144C1536.76 29.144 1535.88 28.994 1535.13 28.694C1534.39 28.394 1533.81 27.968 1533.4 27.416C1533 26.852 1532.79 26.192 1532.79 25.436C1532.79 24.692 1532.98 24.062 1533.37 23.546C1533.76 23.018 1534.33 22.622 1535.08 22.358C1535.82 22.082 1536.72 21.944 1537.78 21.944C1538.83 21.944 1539.73 22.082 1540.48 22.358C1541.23 22.622 1541.81 23.018 1542.21 23.546C1542.6 24.074 1542.8 24.704 1542.8 25.436C1542.8 26.192 1542.6 26.852 1542.19 27.416C1541.78 27.968 1541.2 28.394 1540.44 28.694C1539.69 28.994 1538.8 29.144 1537.78 29.144ZM1537.78 27.686C1538.79 27.686 1539.57 27.482 1540.14 27.074C1540.71 26.654 1541 26.09 1541 25.382C1541 24.686 1540.71 24.14 1540.14 23.744C1539.57 23.336 1538.79 23.132 1537.78 23.132C1536.78 23.132 1536 23.336 1535.44 23.744C1534.87 24.14 1534.59 24.686 1534.59 25.382C1534.59 26.09 1534.87 26.654 1535.44 27.074C1536 27.482 1536.78 27.686 1537.78 27.686ZM1537.78 22.916C1536.82 22.916 1536 22.79 1535.33 22.538C1534.66 22.274 1534.14 21.902 1533.78 21.422C1533.42 20.93 1533.24 20.348 1533.24 19.676C1533.24 18.968 1533.43 18.362 1533.8 17.858C1534.18 17.342 1534.72 16.946 1535.4 16.67C1536.09 16.394 1536.88 16.256 1537.78 16.256C1538.69 16.256 1539.49 16.394 1540.17 16.67C1540.86 16.946 1541.39 17.342 1541.77 17.858C1542.16 18.362 1542.35 18.968 1542.35 19.676C1542.35 20.348 1542.17 20.93 1541.81 21.422C1541.45 21.902 1540.93 22.274 1540.24 22.538C1539.56 22.79 1538.74 22.916 1537.78 22.916ZM1537.78 21.764C1538.65 21.764 1539.34 21.584 1539.83 21.224C1540.33 20.864 1540.59 20.372 1540.59 19.748C1540.59 19.112 1540.33 18.614 1539.81 18.254C1539.3 17.894 1538.62 17.714 1537.78 17.714C1536.94 17.714 1536.27 17.894 1535.76 18.254C1535.27 18.614 1535.02 19.112 1535.02 19.748C1535.02 20.372 1535.26 20.864 1535.74 21.224C1536.24 21.584 1536.91 21.764 1537.78 21.764ZM1553.37 16.256C1554.51 16.256 1555.47 16.502 1556.25 16.994C1557.04 17.486 1557.64 18.2 1558.05 19.136C1558.46 20.06 1558.66 21.194 1558.66 22.538C1558.66 23.966 1558.41 25.172 1557.9 26.156C1557.4 27.14 1556.7 27.884 1555.82 28.388C1554.93 28.892 1553.89 29.144 1552.7 29.144C1552.11 29.144 1551.54 29.084 1550.99 28.964C1550.45 28.844 1549.98 28.658 1549.57 28.406L1550.25 27.002C1550.59 27.218 1550.96 27.374 1551.37 27.47C1551.79 27.554 1552.23 27.596 1552.68 27.596C1553.96 27.596 1554.97 27.2 1555.73 26.408C1556.48 25.604 1556.86 24.416 1556.86 22.844C1556.86 22.592 1556.85 22.292 1556.82 21.944C1556.8 21.596 1556.75 21.254 1556.66 20.918L1557.26 21.53C1557.09 22.082 1556.81 22.55 1556.41 22.934C1556.03 23.306 1555.56 23.588 1555.01 23.78C1554.47 23.96 1553.87 24.05 1553.22 24.05C1552.4 24.05 1551.66 23.894 1551.01 23.582C1550.36 23.27 1549.85 22.832 1549.48 22.268C1549.11 21.692 1548.92 21.014 1548.92 20.234C1548.92 19.418 1549.11 18.716 1549.5 18.128C1549.89 17.528 1550.43 17.066 1551.1 16.742C1551.78 16.418 1552.54 16.256 1553.37 16.256ZM1553.44 17.714C1552.9 17.714 1552.42 17.816 1552 18.02C1551.58 18.224 1551.25 18.506 1551.01 18.866C1550.78 19.226 1550.67 19.658 1550.67 20.162C1550.67 20.906 1550.93 21.5 1551.44 21.944C1551.96 22.376 1552.65 22.592 1553.53 22.592C1554.11 22.592 1554.61 22.484 1555.04 22.268C1555.49 22.052 1555.83 21.758 1556.07 21.386C1556.32 21.014 1556.45 20.6 1556.45 20.144C1556.45 19.7 1556.33 19.298 1556.1 18.938C1555.88 18.578 1555.54 18.284 1555.1 18.056C1554.65 17.828 1554.1 17.714 1553.44 17.714ZM1562.52 29V17.12L1563.29 17.966H1559.67V16.4H1564.3V29H1562.52ZM1566.87 25.904V24.644L1573.32 16.4H1575.26L1568.87 24.644L1567.95 24.356H1578.02V25.904H1566.87ZM1573.88 29V25.904L1573.93 24.356V21.62H1575.62V29H1573.88ZM1588.01 16.256C1589.15 16.256 1590.11 16.502 1590.89 16.994C1591.69 17.486 1592.29 18.2 1592.69 19.136C1593.1 20.06 1593.31 21.194 1593.31 22.538C1593.31 23.966 1593.05 25.172 1592.55 26.156C1592.05 27.14 1591.35 27.884 1590.46 28.388C1589.57 28.892 1588.54 29.144 1587.35 29.144C1586.76 29.144 1586.19 29.084 1585.64 28.964C1585.1 28.844 1584.62 28.658 1584.22 28.406L1584.9 27.002C1585.24 27.218 1585.61 27.374 1586.02 27.47C1586.44 27.554 1586.87 27.596 1587.33 27.596C1588.6 27.596 1589.62 27.2 1590.37 26.408C1591.13 25.604 1591.51 24.416 1591.51 22.844C1591.51 22.592 1591.49 22.292 1591.47 21.944C1591.45 21.596 1591.39 21.254 1591.31 20.918L1591.9 21.53C1591.73 22.082 1591.45 22.55 1591.06 22.934C1590.67 23.306 1590.2 23.588 1589.65 23.78C1589.11 23.96 1588.52 24.05 1587.87 24.05C1587.04 24.05 1586.3 23.894 1585.66 23.582C1585.01 23.27 1584.5 22.832 1584.13 22.268C1583.75 21.692 1583.57 21.014 1583.57 20.234C1583.57 19.418 1583.76 18.716 1584.14 18.128C1584.54 17.528 1585.07 17.066 1585.75 16.742C1586.43 16.418 1587.19 16.256 1588.01 16.256ZM1588.09 17.714C1587.55 17.714 1587.07 17.816 1586.65 18.02C1586.23 18.224 1585.9 18.506 1585.66 18.866C1585.43 19.226 1585.31 19.658 1585.31 20.162C1585.31 20.906 1585.57 21.5 1586.09 21.944C1586.6 22.376 1587.3 22.592 1588.18 22.592C1588.75 22.592 1589.26 22.484 1589.69 22.268C1590.13 22.052 1590.47 21.758 1590.71 21.386C1590.97 21.014 1591.09 20.6 1591.09 20.144C1591.09 19.7 1590.98 19.298 1590.75 18.938C1590.52 18.578 1590.19 18.284 1589.74 18.056C1589.3 17.828 1588.75 17.714 1588.09 17.714ZM1594.84 29V27.776L1599.97 22.826C1600.43 22.394 1600.76 22.016 1600.98 21.692C1601.21 21.356 1601.36 21.05 1601.43 20.774C1601.51 20.486 1601.55 20.21 1601.55 19.946C1601.55 19.298 1601.33 18.788 1600.87 18.416C1600.41 18.044 1599.75 17.858 1598.87 17.858C1598.2 17.858 1597.59 17.972 1597.05 18.2C1596.51 18.416 1596.05 18.758 1595.65 19.226L1594.43 18.164C1594.91 17.552 1595.55 17.084 1596.35 16.76C1597.17 16.424 1598.06 16.256 1599.03 16.256C1599.91 16.256 1600.67 16.4 1601.32 16.688C1601.97 16.964 1602.47 17.366 1602.81 17.894C1603.17 18.422 1603.35 19.046 1603.35 19.766C1603.35 20.174 1603.3 20.576 1603.19 20.972C1603.08 21.368 1602.88 21.788 1602.58 22.232C1602.28 22.676 1601.85 23.174 1601.28 23.726L1596.71 28.136L1596.28 27.434H1603.89V29H1594.84ZM1609.23 29.144C1608.34 29.144 1607.47 29.006 1606.63 28.73C1605.81 28.454 1605.13 28.082 1604.6 27.614L1605.43 26.192C1605.85 26.588 1606.39 26.912 1607.07 27.164C1607.74 27.416 1608.46 27.542 1609.23 27.542C1610.16 27.542 1610.89 27.344 1611.4 26.948C1611.93 26.54 1612.2 25.994 1612.2 25.31C1612.2 24.65 1611.94 24.122 1611.44 23.726C1610.95 23.318 1610.16 23.114 1609.08 23.114H1608.07V21.854L1611.82 17.246L1612.07 17.966H1605.18V16.4H1613.49V17.624L1609.77 22.214L1608.83 21.656H1609.42C1610.95 21.656 1612.09 21.998 1612.84 22.682C1613.61 23.366 1614 24.236 1614 25.292C1614 26 1613.82 26.648 1613.47 27.236C1613.13 27.824 1612.6 28.292 1611.89 28.64C1611.19 28.976 1610.31 29.144 1609.23 29.144ZM1624.59 16.256C1625.73 16.256 1626.69 16.502 1627.47 16.994C1628.27 17.486 1628.87 18.2 1629.27 19.136C1629.68 20.06 1629.89 21.194 1629.89 22.538C1629.89 23.966 1629.63 25.172 1629.13 26.156C1628.63 27.14 1627.93 27.884 1627.04 28.388C1626.15 28.892 1625.12 29.144 1623.93 29.144C1623.34 29.144 1622.77 29.084 1622.22 28.964C1621.68 28.844 1621.2 28.658 1620.8 28.406L1621.48 27.002C1621.82 27.218 1622.19 27.374 1622.6 27.47C1623.02 27.554 1623.45 27.596 1623.91 27.596C1625.18 27.596 1626.2 27.2 1626.95 26.408C1627.71 25.604 1628.09 24.416 1628.09 22.844C1628.09 22.592 1628.07 22.292 1628.05 21.944C1628.03 21.596 1627.97 21.254 1627.89 20.918L1628.48 21.53C1628.31 22.082 1628.03 22.55 1627.64 22.934C1627.25 23.306 1626.78 23.588 1626.23 23.78C1625.69 23.96 1625.1 24.05 1624.45 24.05C1623.62 24.05 1622.88 23.894 1622.24 23.582C1621.59 23.27 1621.08 22.832 1620.71 22.268C1620.33 21.692 1620.15 21.014 1620.15 20.234C1620.15 19.418 1620.34 18.716 1620.72 18.128C1621.12 17.528 1621.65 17.066 1622.33 16.742C1623.01 16.418 1623.77 16.256 1624.59 16.256ZM1624.67 17.714C1624.13 17.714 1623.65 17.816 1623.23 18.02C1622.81 18.224 1622.48 18.506 1622.24 18.866C1622.01 19.226 1621.89 19.658 1621.89 20.162C1621.89 20.906 1622.15 21.5 1622.67 21.944C1623.18 22.376 1623.88 22.592 1624.76 22.592C1625.33 22.592 1625.84 22.484 1626.27 22.268C1626.71 22.052 1627.05 21.758 1627.29 21.386C1627.55 21.014 1627.67 20.6 1627.67 20.144C1627.67 19.7 1627.56 19.298 1627.33 18.938C1627.1 18.578 1626.77 18.284 1626.32 18.056C1625.88 17.828 1625.33 17.714 1624.67 17.714ZM1631.42 29V27.776L1636.55 22.826C1637.01 22.394 1637.34 22.016 1637.56 21.692C1637.79 21.356 1637.94 21.05 1638.01 20.774C1638.09 20.486 1638.13 20.21 1638.13 19.946C1638.13 19.298 1637.91 18.788 1637.45 18.416C1636.99 18.044 1636.33 17.858 1635.45 17.858C1634.78 17.858 1634.17 17.972 1633.63 18.2C1633.09 18.416 1632.63 18.758 1632.23 19.226L1631.01 18.164C1631.49 17.552 1632.13 17.084 1632.93 16.76C1633.75 16.424 1634.64 16.256 1635.61 16.256C1636.49 16.256 1637.25 16.4 1637.9 16.688C1638.55 16.964 1639.05 17.366 1639.39 17.894C1639.75 18.422 1639.93 19.046 1639.93 19.766C1639.93 20.174 1639.88 20.576 1639.77 20.972C1639.66 21.368 1639.46 21.788 1639.16 22.232C1638.86 22.676 1638.43 23.174 1637.86 23.726L1633.29 28.136L1632.86 27.434H1640.47V29H1631.42ZM1646.95 24.806V23.312H1651.79V24.806H1646.95ZM1658.31 29V27.776L1663.44 22.826C1663.9 22.394 1664.24 22.016 1664.45 21.692C1664.68 21.356 1664.83 21.05 1664.9 20.774C1664.99 20.486 1665.03 20.21 1665.03 19.946C1665.03 19.298 1664.8 18.788 1664.34 18.416C1663.89 18.044 1663.22 17.858 1662.35 17.858C1661.67 17.858 1661.07 17.972 1660.53 18.2C1659.99 18.416 1659.52 18.758 1659.12 19.226L1657.9 18.164C1658.38 17.552 1659.02 17.084 1659.83 16.76C1660.64 16.424 1661.54 16.256 1662.51 16.256C1663.38 16.256 1664.15 16.4 1664.79 16.688C1665.44 16.964 1665.94 17.366 1666.29 17.894C1666.65 18.422 1666.83 19.046 1666.83 19.766C1666.83 20.174 1666.77 20.576 1666.67 20.972C1666.56 21.368 1666.35 21.788 1666.05 22.232C1665.75 22.676 1665.32 23.174 1664.76 23.726L1660.19 28.136L1659.75 27.434H1667.37V29H1658.31ZM1672.7 29.144C1671.81 29.144 1670.95 29.006 1670.11 28.73C1669.28 28.454 1668.6 28.082 1668.07 27.614L1668.9 26.192C1669.32 26.588 1669.87 26.912 1670.54 27.164C1671.21 27.416 1671.93 27.542 1672.7 27.542C1673.64 27.542 1674.36 27.344 1674.88 26.948C1675.41 26.54 1675.67 25.994 1675.67 25.31C1675.67 24.65 1675.42 24.122 1674.91 23.726C1674.42 23.318 1673.64 23.114 1672.56 23.114H1671.55V21.854L1675.29 17.246L1675.54 17.966H1668.65V16.4H1676.97V17.624L1673.24 22.214L1672.3 21.656H1672.9C1674.42 21.656 1675.56 21.998 1676.32 22.682C1677.09 23.366 1677.47 24.236 1677.47 25.292C1677.47 26 1677.3 26.648 1676.95 27.236C1676.6 27.824 1676.07 28.292 1675.36 28.64C1674.67 28.976 1673.78 29.144 1672.7 29.144Z" fill="#272727"/>
<rect x="501.5" y="0.5" width="817" height="49" rx="15.5" fill="white" stroke="#CDCDCD"/>
<path d="M1272.02 16.018C1270.07 17.9643 1269 20.5519 1269 23.3043C1269 26.0567 1270.07 28.6443 1272.02 30.5905C1273.96 32.5367 1276.55 33.6086 1279.3 33.6086C1281.82 33.6086 1284.2 32.7122 1286.08 31.0712L1291.8 36.7938C1292.07 37.0687 1292.52 37.0687 1292.79 36.7938C1292.93 36.6564 1293 36.4763 1293 36.2962C1293 36.1161 1292.93 35.9359 1292.79 35.7985L1287.07 30.0758C1288.71 28.199 1289.61 25.8207 1289.61 23.3043C1289.61 20.5519 1288.54 17.9643 1286.59 16.0181C1284.64 14.0718 1282.06 13 1279.3 13C1276.55 13 1273.96 14.0718 1272.02 16.018ZM1285.6 17.0135C1289.06 20.4823 1289.06 26.1263 1285.6 29.5951C1282.13 33.0638 1276.48 33.0638 1273.01 29.5951C1271.28 27.8605 1270.41 25.5828 1270.41 23.3042C1270.41 21.0263 1271.28 18.7476 1273.01 17.0134C1276.48 13.5447 1282.13 13.5447 1285.6 17.0135Z" fill="#272727"/>
<path d="M7.25584 15.5112V2.0813H1.97542V0.175267H14.7144V2.0813H9.43402V15.5112H7.25584Z" fill="#04E277"/>
<path d="M19.1129 6.79163H27.0335V8.65385H19.1129V6.79163ZM19.3109 13.6052H28.2876V15.5112H17.1107V0.175267H27.9796V2.0813H19.3109V13.6052Z" fill="#04E277"/>
<path d="M38.7153 15.6865C37.5418 15.6865 36.4564 15.4966 35.459 15.1168C34.4763 14.7225 33.6182 14.1748 32.8848 13.4737C32.1661 12.758 31.6014 11.9255 31.1907 10.9761C30.78 10.0268 30.5746 8.98247 30.5746 7.84323C30.5746 6.70399 30.78 5.65969 31.1907 4.71032C31.6014 3.76095 32.1734 2.93573 32.9068 2.23466C33.6402 1.51899 34.4983 0.971275 35.481 0.591528C36.4784 0.197176 37.5638 0 38.7373 0C39.9254 0 41.0181 0.204479 42.0155 0.613437C43.0276 1.00779 43.8857 1.59932 44.5897 2.38802L43.1596 3.76826C42.5729 3.15482 41.9129 2.70204 41.1795 2.40993C40.4461 2.10321 39.6613 1.94985 38.8253 1.94985C37.9599 1.94985 37.1531 2.09591 36.4051 2.38802C35.6717 2.68014 35.0336 3.08909 34.4909 3.6149C33.9482 4.1407 33.5229 4.76874 33.2148 5.49903C32.9215 6.2147 32.7748 6.99611 32.7748 7.84323C32.7748 8.69036 32.9215 9.47907 33.2148 10.2093C33.5229 10.925 33.9482 11.5458 34.4909 12.0716C35.0336 12.5974 35.6717 13.0063 36.4051 13.2984C37.1531 13.5906 37.9599 13.7366 38.8253 13.7366C39.6613 13.7366 40.4461 13.5906 41.1795 13.2984C41.9129 12.9917 42.5729 12.5243 43.1596 11.8963L44.5897 13.2765C43.8857 14.0652 43.0276 14.6641 42.0155 15.073C41.0181 15.482 39.918 15.6865 38.7153 15.6865Z" fill="#04E277"/>
<path d="M58.7733 0.175267H60.9735V15.5112H58.7733V0.175267ZM49.9286 15.5112H47.7284V0.175267H49.9286V15.5112ZM58.9713 8.67575H49.7086V6.76972H58.9713V8.67575Z" fill="#04E277"/>
<path d="M65.5834 15.5112V0.175267H67.3875L77.5743 12.7726H76.6283V0.175267H78.8284V15.5112H77.0243L66.8375 2.91383H67.7835V15.5112H65.5834Z" fill="#04E277"/>
<path d="M90.3909 15.6865C89.2174 15.6865 88.1247 15.4893 87.1126 15.0949C86.1152 14.7006 85.2498 14.1529 84.5164 13.4518C83.783 12.7361 83.211 11.9036 82.8003 10.9542C82.3896 10.0049 82.1842 8.96787 82.1842 7.84323C82.1842 6.7186 82.3896 5.6816 82.8003 4.73223C83.211 3.78286 83.783 2.95764 84.5164 2.25657C85.2498 1.54089 86.1152 0.98588 87.1126 0.591528C88.11 0.197176 89.2028 0 90.3909 0C91.5643 0 92.6424 0.197176 93.6251 0.591528C94.6225 0.971275 95.4879 1.51899 96.2213 2.23466C96.9694 2.93573 97.5414 3.76095 97.9375 4.71032C98.3482 5.65969 98.5535 6.70399 98.5535 7.84323C98.5535 8.98247 98.3482 10.0268 97.9375 10.9761C97.5414 11.9255 96.9694 12.758 96.2213 13.4737C95.4879 14.1748 94.6225 14.7225 93.6251 15.1168C92.6424 15.4966 91.5643 15.6865 90.3909 15.6865ZM90.3909 13.7366C91.2416 13.7366 92.0263 13.5906 92.7451 13.2984C93.4784 13.0063 94.1092 12.5974 94.6372 12.0716C95.1799 11.5312 95.598 10.9031 95.8913 10.1874C96.1993 9.47176 96.3533 8.69036 96.3533 7.84323C96.3533 6.99611 96.1993 6.2147 95.8913 5.49903C95.598 4.78335 95.1799 4.16261 94.6372 3.63681C94.1092 3.0964 93.4784 2.68014 92.7451 2.38802C92.0263 2.09591 91.2416 1.94985 90.3909 1.94985C89.5255 1.94985 88.7261 2.09591 87.9927 2.38802C87.2739 2.68014 86.6432 3.0964 86.1005 3.63681C85.5578 4.16261 85.1325 4.78335 84.8244 5.49903C84.5311 6.2147 84.3844 6.99611 84.3844 7.84323C84.3844 8.69036 84.5311 9.47176 84.8244 10.1874C85.1325 10.9031 85.5578 11.5312 86.1005 12.0716C86.6432 12.5974 87.2739 13.0063 87.9927 13.2984C88.7261 13.5906 89.5255 13.7366 90.3909 13.7366Z" fill="#04E277"/>
<path d="M9.75411 50C7.86033 50 6.02359 49.7501 4.2439 49.2502C2.48701 48.7277 1.07238 48.0574 0 47.2395L1.88237 43.0818C2.90912 43.8316 4.12981 44.4336 5.54444 44.888C6.95908 45.3424 8.37371 45.5696 9.78834 45.5696C11.3627 45.5696 12.5263 45.3424 13.2793 44.888C14.0322 44.4109 14.4087 43.7861 14.4087 43.0136C14.4087 42.4456 14.1805 41.9799 13.7242 41.6164C13.2907 41.2301 12.7203 40.9234 12.013 40.6962C11.3285 40.469 10.393 40.2191 9.20652 39.9464C7.38118 39.5148 5.88669 39.0831 4.72304 38.6514C3.5594 38.2197 2.55546 37.5268 1.71125 36.5725C0.889849 35.6183 0.47915 34.346 0.47915 32.7556C0.47915 31.3697 0.855624 30.1201 1.60857 29.0068C2.36152 27.8708 3.49095 26.9734 4.99684 26.3145C6.52556 25.6556 8.38512 25.3262 10.5755 25.3262C12.1042 25.3262 13.5987 25.508 15.059 25.8715C16.5192 26.235 17.797 26.7575 18.8922 27.4391L17.1809 31.631C14.9677 30.3814 12.7545 29.7566 10.5413 29.7566C8.98976 29.7566 7.83752 30.0065 7.08457 30.5063C6.35443 31.0062 5.98937 31.665 5.98937 32.483C5.98937 33.3009 6.41148 33.9143 7.25569 34.3233C8.12272 34.7095 9.43468 35.0957 11.1916 35.482C13.0169 35.9137 14.5114 36.3453 15.675 36.777C16.8387 37.2087 17.8312 37.8903 18.6526 38.8218C19.4968 39.7533 19.9189 41.0143 19.9189 42.6047C19.9189 43.9679 19.531 45.2175 18.7553 46.3535C18.0023 47.4667 16.8615 48.3528 15.3328 49.0117C13.8041 49.6706 11.9445 50 9.75411 50Z" fill="#04E277"/>
<path d="M45.6799 25.7351V49.591H40.1354V39.8101H29.2519V49.591H23.7075V25.7351H29.2519V35.1412H40.1354V25.7351H45.6799Z" fill="#04E277"/>
<path d="M62.9504 50C60.4634 50 58.2159 49.4661 56.2081 48.3983C54.223 47.3304 52.6601 45.865 51.5193 44.0019C50.4012 42.1162 49.8422 40.0032 49.8422 37.6631C49.8422 35.3229 50.4012 33.2214 51.5193 31.3583C52.6601 29.4726 54.223 27.9958 56.2081 26.9279C58.2159 25.8601 60.4634 25.3262 62.9504 25.3262C65.4374 25.3262 67.6734 25.8601 69.6585 26.9279C71.6435 27.9958 73.2065 29.4726 74.3473 31.3583C75.4881 33.2214 76.0586 35.3229 76.0586 37.6631C76.0586 40.0032 75.4881 42.1162 74.3473 44.0019C73.2065 45.865 71.6435 47.3304 69.6585 48.3983C67.6734 49.4661 65.4374 50 62.9504 50ZM62.9504 45.297C64.365 45.297 65.6428 44.9789 66.7836 44.3427C67.9244 43.6839 68.8143 42.7751 69.4531 41.6164C70.1148 40.4576 70.4457 39.1399 70.4457 37.6631C70.4457 36.1863 70.1148 34.8685 69.4531 33.7098C68.8143 32.5511 67.9244 31.6537 66.7836 31.0175C65.6428 30.3587 64.365 30.0292 62.9504 30.0292C61.5358 30.0292 60.258 30.3587 59.1172 31.0175C57.9764 31.6537 57.0751 32.5511 56.4134 33.7098C55.7746 34.8685 55.4551 36.1863 55.4551 37.6631C55.4551 39.1399 55.7746 40.4576 56.4134 41.6164C57.0751 42.7751 57.9764 43.6839 59.1172 44.3427C60.258 44.9789 61.5358 45.297 62.9504 45.297Z" fill="#04E277"/>
<path d="M90.5956 25.7351C92.7176 25.7351 94.5543 26.0873 96.1058 26.7916C97.6802 27.4959 98.8895 28.4956 99.7337 29.7907C100.578 31.0857 101 32.6193 101 34.3914C101 36.1409 100.578 37.6745 99.7337 38.9922C98.8895 40.2872 97.6802 41.2869 96.1058 41.9912C94.5543 42.6728 92.7176 43.0136 90.5956 43.0136H85.7699V49.591H80.2254V25.7351H90.5956ZM90.2876 38.5151C91.9532 38.5151 93.2195 38.1629 94.0866 37.4586C94.9536 36.7316 95.3871 35.7092 95.3871 34.3914C95.3871 33.051 94.9536 32.0286 94.0866 31.3242C93.2195 30.5972 91.9532 30.2337 90.2876 30.2337H85.7699V38.5151H90.2876Z" fill="#04E277"/>
</svg>
